<mxfile host="app.diagrams.net" agent="Mozilla/5.0 (Windows NT 10.0; Win64; x64) AppleWebKit/537.36 (KHTML, like Gecko) Chrome/130.0.0.0 Safari/537.36 Edg/130.0.0.0" version="24.8.4">
  <diagram id="Ht1M8jgEwFfnCIfOTk4-" name="Page-1">
    <mxGraphModel dx="978" dy="1362" grid="1" gridSize="10" guides="1" tooltips="1" connect="1" arrows="1" fold="1" page="1" pageScale="1" pageWidth="1169" pageHeight="827" math="0" shadow="0">
      <root>
        <mxCell id="0" />
        <mxCell id="1" parent="0" />
        <mxCell id="PcsryWyyYwU4OLfBG2cS-1" value="AWS Cloud" style="points=[[0,0],[0.25,0],[0.5,0],[0.75,0],[1,0],[1,0.25],[1,0.5],[1,0.75],[1,1],[0.75,1],[0.5,1],[0.25,1],[0,1],[0,0.75],[0,0.5],[0,0.25]];outlineConnect=0;gradientColor=none;html=1;whiteSpace=wrap;fontSize=12;fontStyle=0;container=1;pointerEvents=0;collapsible=0;recursiveResize=0;shape=mxgraph.aws4.group;grIcon=mxgraph.aws4.group_aws_cloud_alt;strokeColor=#232F3E;fillColor=none;verticalAlign=top;align=left;spacingLeft=30;fontColor=#232F3E;dashed=0;" vertex="1" parent="1">
          <mxGeometry x="59" y="-320" width="1101" height="900" as="geometry" />
        </mxCell>
        <mxCell id="PcsryWyyYwU4OLfBG2cS-29" value="Route53" style="sketch=0;points=[[0,0,0],[0.25,0,0],[0.5,0,0],[0.75,0,0],[1,0,0],[0,1,0],[0.25,1,0],[0.5,1,0],[0.75,1,0],[1,1,0],[0,0.25,0],[0,0.5,0],[0,0.75,0],[1,0.25,0],[1,0.5,0],[1,0.75,0]];outlineConnect=0;fontColor=#232F3E;fillColor=#8C4FFF;strokeColor=#ffffff;dashed=0;verticalLabelPosition=bottom;verticalAlign=top;align=center;html=1;fontSize=12;fontStyle=0;aspect=fixed;shape=mxgraph.aws4.resourceIcon;resIcon=mxgraph.aws4.route_53;" vertex="1" parent="PcsryWyyYwU4OLfBG2cS-1">
          <mxGeometry x="311" y="80" width="39" height="39" as="geometry" />
        </mxCell>
        <mxCell id="PcsryWyyYwU4OLfBG2cS-38" style="edgeStyle=orthogonalEdgeStyle;rounded=0;orthogonalLoop=1;jettySize=auto;html=1;exitX=1;exitY=0.5;exitDx=0;exitDy=0;exitPerimeter=0;" edge="1" parent="PcsryWyyYwU4OLfBG2cS-1" source="PcsryWyyYwU4OLfBG2cS-32" target="PcsryWyyYwU4OLfBG2cS-37">
          <mxGeometry relative="1" as="geometry" />
        </mxCell>
        <mxCell id="PcsryWyyYwU4OLfBG2cS-41" style="edgeStyle=orthogonalEdgeStyle;rounded=0;orthogonalLoop=1;jettySize=auto;html=1;exitX=0.5;exitY=1;exitDx=0;exitDy=0;exitPerimeter=0;" edge="1" parent="PcsryWyyYwU4OLfBG2cS-1" source="PcsryWyyYwU4OLfBG2cS-32" target="PcsryWyyYwU4OLfBG2cS-40">
          <mxGeometry relative="1" as="geometry" />
        </mxCell>
        <mxCell id="PcsryWyyYwU4OLfBG2cS-32" value="CloudFront" style="sketch=0;points=[[0,0,0],[0.25,0,0],[0.5,0,0],[0.75,0,0],[1,0,0],[0,1,0],[0.25,1,0],[0.5,1,0],[0.75,1,0],[1,1,0],[0,0.25,0],[0,0.5,0],[0,0.75,0],[1,0.25,0],[1,0.5,0],[1,0.75,0]];outlineConnect=0;fontColor=#232F3E;fillColor=#8C4FFF;strokeColor=#ffffff;dashed=0;verticalLabelPosition=bottom;verticalAlign=top;align=center;html=1;fontSize=12;fontStyle=0;aspect=fixed;shape=mxgraph.aws4.resourceIcon;resIcon=mxgraph.aws4.cloudfront;" vertex="1" parent="PcsryWyyYwU4OLfBG2cS-1">
          <mxGeometry x="441" y="80" width="39" height="39" as="geometry" />
        </mxCell>
        <mxCell id="PcsryWyyYwU4OLfBG2cS-33" style="edgeStyle=orthogonalEdgeStyle;rounded=0;orthogonalLoop=1;jettySize=auto;html=1;exitX=1;exitY=0.5;exitDx=0;exitDy=0;exitPerimeter=0;entryX=0;entryY=0.5;entryDx=0;entryDy=0;entryPerimeter=0;" edge="1" parent="PcsryWyyYwU4OLfBG2cS-1" source="PcsryWyyYwU4OLfBG2cS-29" target="PcsryWyyYwU4OLfBG2cS-32">
          <mxGeometry relative="1" as="geometry" />
        </mxCell>
        <mxCell id="PcsryWyyYwU4OLfBG2cS-36" style="edgeStyle=orthogonalEdgeStyle;rounded=0;orthogonalLoop=1;jettySize=auto;html=1;exitX=0;exitY=0.5;exitDx=0;exitDy=0;exitPerimeter=0;" edge="1" parent="PcsryWyyYwU4OLfBG2cS-1" source="PcsryWyyYwU4OLfBG2cS-35" target="PcsryWyyYwU4OLfBG2cS-32">
          <mxGeometry relative="1" as="geometry" />
        </mxCell>
        <mxCell id="PcsryWyyYwU4OLfBG2cS-35" value="WAF" style="sketch=0;points=[[0,0,0],[0.25,0,0],[0.5,0,0],[0.75,0,0],[1,0,0],[0,1,0],[0.25,1,0],[0.5,1,0],[0.75,1,0],[1,1,0],[0,0.25,0],[0,0.5,0],[0,0.75,0],[1,0.25,0],[1,0.5,0],[1,0.75,0]];outlineConnect=0;fontColor=#232F3E;fillColor=#DD344C;strokeColor=#ffffff;dashed=0;verticalLabelPosition=bottom;verticalAlign=top;align=center;html=1;fontSize=12;fontStyle=0;aspect=fixed;shape=mxgraph.aws4.resourceIcon;resIcon=mxgraph.aws4.waf;" vertex="1" parent="PcsryWyyYwU4OLfBG2cS-1">
          <mxGeometry x="526" y="30" width="40" height="40" as="geometry" />
        </mxCell>
        <mxCell id="PcsryWyyYwU4OLfBG2cS-37" value="S3" style="sketch=0;outlineConnect=0;fontColor=#232F3E;gradientColor=none;fillColor=#7AA116;strokeColor=none;dashed=0;verticalLabelPosition=bottom;verticalAlign=top;align=center;html=1;fontSize=12;fontStyle=0;aspect=fixed;pointerEvents=1;shape=mxgraph.aws4.bucket_with_objects;" vertex="1" parent="PcsryWyyYwU4OLfBG2cS-1">
          <mxGeometry x="701" y="119" width="26" height="27.04" as="geometry" />
        </mxCell>
        <mxCell id="PcsryWyyYwU4OLfBG2cS-39" value="" style="sketch=0;outlineConnect=0;fontColor=#232F3E;gradientColor=none;fillColor=#E7157B;strokeColor=none;dashed=0;verticalLabelPosition=bottom;verticalAlign=top;align=center;html=1;fontSize=12;fontStyle=0;aspect=fixed;pointerEvents=1;shape=mxgraph.aws4.shield_shield_advanced;" vertex="1" parent="PcsryWyyYwU4OLfBG2cS-1">
          <mxGeometry x="381" y="59.99999999999999" width="31" height="34.54" as="geometry" />
        </mxCell>
        <mxCell id="PcsryWyyYwU4OLfBG2cS-40" value="API Gateway" style="sketch=0;points=[[0,0,0],[0.25,0,0],[0.5,0,0],[0.75,0,0],[1,0,0],[0,1,0],[0.25,1,0],[0.5,1,0],[0.75,1,0],[1,1,0],[0,0.25,0],[0,0.5,0],[0,0.75,0],[1,0.25,0],[1,0.5,0],[1,0.75,0]];outlineConnect=0;fontColor=#232F3E;fillColor=#E7157B;strokeColor=#ffffff;dashed=0;verticalLabelPosition=bottom;verticalAlign=top;align=center;html=1;fontSize=12;fontStyle=0;aspect=fixed;shape=mxgraph.aws4.resourceIcon;resIcon=mxgraph.aws4.api_gateway;" vertex="1" parent="PcsryWyyYwU4OLfBG2cS-1">
          <mxGeometry x="366" y="160" width="46" height="46" as="geometry" />
        </mxCell>
        <mxCell id="PcsryWyyYwU4OLfBG2cS-42" value="VPC" style="sketch=0;outlineConnect=0;gradientColor=none;html=1;whiteSpace=wrap;fontSize=12;fontStyle=0;shape=mxgraph.aws4.group;grIcon=mxgraph.aws4.group_vpc;strokeColor=#248814;fillColor=none;verticalAlign=top;align=left;spacingLeft=30;fontColor=#879196;dashed=0;" vertex="1" parent="PcsryWyyYwU4OLfBG2cS-1">
          <mxGeometry x="81" y="240" width="919" height="620" as="geometry" />
        </mxCell>
        <mxCell id="PcsryWyyYwU4OLfBG2cS-25" value="" style="shape=image;verticalLabelPosition=bottom;labelBackgroundColor=default;verticalAlign=top;aspect=fixed;imageAspect=0;image=https://d2908q01vomqb2.cloudfront.net/4d134bc072212ace2df385dae143139da74ec0ef/2020/11/19/image005-5.png;" vertex="1" parent="1">
          <mxGeometry x="1310" y="-360" width="916" height="1200" as="geometry" />
        </mxCell>
        <mxCell id="PcsryWyyYwU4OLfBG2cS-28" value="" style="sketch=0;outlineConnect=0;fontColor=#232F3E;gradientColor=none;fillColor=#232F3D;strokeColor=none;dashed=0;verticalLabelPosition=bottom;verticalAlign=top;align=center;html=1;fontSize=12;fontStyle=0;aspect=fixed;pointerEvents=1;shape=mxgraph.aws4.users;" vertex="1" parent="1">
          <mxGeometry x="170" y="-413" width="48" height="48" as="geometry" />
        </mxCell>
        <mxCell id="PcsryWyyYwU4OLfBG2cS-31" style="edgeStyle=orthogonalEdgeStyle;rounded=0;orthogonalLoop=1;jettySize=auto;html=1;entryX=0;entryY=0.5;entryDx=0;entryDy=0;entryPerimeter=0;" edge="1" parent="1" source="PcsryWyyYwU4OLfBG2cS-28" target="PcsryWyyYwU4OLfBG2cS-29">
          <mxGeometry relative="1" as="geometry" />
        </mxCell>
      </root>
    </mxGraphModel>
  </diagram>
</mxfile>
